<svg xmlns="http://www.w3.org/2000/svg" version="1.1" xmlns:xlink="http://www.w3.org/1999/xlink" xmlns:svgjs="http://svgjs.dev/svgjs" width="960" height="160" viewBox="0 0 1000 171"><g transform="matrix(1,0,0,1,-0.6060567101529273,-0.2869338681664999)"><svg viewBox="0 0 396 68" data-background-color="#ffffff" preserveAspectRatio="xMidYMid meet" height="171" width="1000" xmlns="http://www.w3.org/2000/svg" xmlns:xlink="http://www.w3.org/1999/xlink"><g id="tight-bounds" transform="matrix(1,0,0,1,0.23999845722056534,0.11410235693170989)"><svg viewBox="0 0 395.52 67.77179528613655" height="67.77179528613655" width="395.52"><g><svg viewBox="0 0 486.9789662151293 83.44316041410333" height="67.77179528613655" width="395.52"><g><rect width="4.680855279024556" height="83.44316041410333" x="74.5245630852551" y="0" fill="#7bb1ff" opacity="1" stroke-width="0" stroke="transparent" fill-opacity="1" class="rect-o-0" data-fill-palette-color="primary" rx="1%" id="o-0" data-palette-color="#7bb1ff"></rect></g><g transform="matrix(1,0,0,1,91.45896621512927,0.20757005078134938)"><svg viewBox="0 0 395.52 83.02802031254063" height="83.02802031254063" width="395.52"><g><svg viewBox="0 0 395.52 83.02802031254063" height="83.02802031254063" width="395.52"><g><svg viewBox="0 0 395.52 56.63808536098923" height="56.63808536098923" width="395.52"><g transform="matrix(1,0,0,1,0,0)"><svg width="395.52" viewBox="0.9500006437301636 -32.45000076293945 250.6999969482422 32.900001525878906" height="56.63808536098923" data-palette-color="#7bb1ff"><svg></svg><g class="undefined-text-0" data-fill-palette-color="primary" id="text-0"><path xmlns="http://www.w3.org/2000/svg" d="M23.55-32.1l0.3 0.45-0.3 3.9-5.8-0.3h-2.7l-0.25 17.95 0.25 10.1h-5.2l0.3-9.65-0.25-18.4h-2.7l-5.9 0.3-0.35-0.45 0.4-3.9zM43.7-12.85c2.267 3.633 4.95 7.517 8.05 11.65v0l-0.05 0.6c-1.6 0.533-3.25 0.883-4.95 1.05v0l-0.6-0.4c-2.767-4.533-5-8.367-6.7-11.5v0h-5.45v1.35l0.25 10.1h-5.25l0.35-9.65-0.35-22.45 10.9-0.05c3.233 0 5.733 0.807 7.5 2.42 1.767 1.62 2.65 3.93 2.65 6.93v0c0 2.133-0.557 4.057-1.67 5.77-1.12 1.72-2.68 3.113-4.68 4.18zM34.25-27.95l-0.15 12.3 5.5 0.15c3.367-1.033 5.05-3.333 5.05-6.9v0c0-1.867-0.507-3.267-1.52-4.2-1.02-0.933-2.563-1.433-4.63-1.5v0zM71.25-32.1l10.35 32.1h-5.3l-0.75-3.6-1.4-4.45-6.8-0.15-6.15 0.15-1.5 4.2-0.8 3.85h-5.15l11.45-32.1zM67.7-12.15l5.15-0.1-4.6-14.8h-0.35l-5.25 14.8zM109.7-32.1l-11.35 32.1h-6.1l-10.4-32.1h5.3l0.75 3.65 7.35 23.45h0.35l8.15-23.2 0.8-3.9zM125.4-4.15l7.75-0.25 0.3 0.45-0.35 3.95h-18.95l0.35-9.65-0.35-22.45h19.05l0.3 0.45-0.4 3.95-7.6-0.2-6.1 0.05-0.15 9.35 5.8 0.1 5.3-0.15 0.35 0.4-0.4 3.95-5.65-0.15-5.45 0.1-0.05 4.15 0.15 5.9zM155.2-4.3l0.35 0.45-0.4 3.85h-16.5l0.35-9.65-0.35-22.45h5.3l-0.3 22 0.1 5.8zM176.35-4.3l0.35 0.45-0.4 3.85h-16.5l0.35-9.65-0.35-22.45h5.3l-0.3 22 0.1 5.8zM186.4-32.1l-0.3 22 0.25 10.1h-5.25l0.35-9.65-0.35-22.45zM220.85-32.2l-0.3 22.6 0.15 9.6h-5.55l-15.1-24.05h-0.35l-0.05 13.3 0.15 10.75h-4.7l0.25-9.5-0.2-22.6h5.45l15.15 24.05h0.4l-0.1-23.8zM242.25-32.45c3.367 0 6.5 0.717 9.4 2.15v0l-1.05 4.8-0.55 0.05c-1.633-0.967-3.117-1.66-4.45-2.08-1.333-0.413-2.733-0.62-4.2-0.62v0c-3.333 0-5.817 1.007-7.45 3.02-1.633 2.02-2.45 5.197-2.45 9.53v0c0 4.133 0.767 7.123 2.3 8.97 1.533 1.853 3.967 2.78 7.3 2.78v0c0.833 0 1.66-0.077 2.48-0.23 0.813-0.147 1.837-0.403 3.07-0.77v0l0.15-3.25-0.15-4.95 4.85-0.35-0.1 4.5 0.15 7.35c-4.133 1.3-7.717 1.95-10.75 1.95v0c-4.9 0-8.567-1.36-11-4.08-2.433-2.713-3.65-6.603-3.65-11.67v0c0-5.533 1.393-9.767 4.18-12.7 2.78-2.933 6.753-4.4 11.92-4.4z" fill="#7bb1ff" fill-rule="nonzero" stroke="none" stroke-width="1" stroke-linecap="butt" stroke-linejoin="miter" stroke-miterlimit="10" stroke-dasharray="" stroke-dashoffset="0" font-family="none" font-weight="none" font-size="none" text-anchor="none" style="mix-blend-mode: normal" data-fill-palette-color="primary" opacity="1"></path></g></svg></g></svg></g><g transform="matrix(1,0,0,1,0,68.89163321183885)"><svg viewBox="0 0 232.209792 14.136387100701782" height="14.136387100701782" width="232.209792"><g transform="matrix(1,0,0,1,0,0)"><svg width="232.209792" viewBox="2.9000000953674316 -35.5 586.3699951171875 36" height="14.136387100701782" data-palette-color="#ff82fc"><g class="undefined-text-1" data-fill-palette-color="secondary" id="text-1"><path d="M12.65 0.5L12.65 0.5Q9.6 0.5 7.13-1.05 4.65-2.6 3.25-5.2L3.25-5.2Q2.9-5.8 2.9-6.35L2.9-6.35Q2.9-7.2 3.55-7.73 4.2-8.25 4.85-8.25L4.85-8.25Q5.4-8.25 5.88-7.95 6.35-7.65 6.7-7.2L6.7-7.2Q7.7-5.5 9.2-4.5 10.7-3.5 12.65-3.5L12.65-3.5Q14.7-3.5 16.28-4.4 17.85-5.3 18.78-6.88 19.7-8.45 19.7-10.45L19.7-10.45 19.7-33Q19.7-33.85 20.33-34.43 20.95-35 21.85-35L21.85-35Q22.75-35 23.33-34.43 23.9-33.85 23.9-33L23.9-33 23.9-10.45Q23.9-7.4 22.43-4.9 20.95-2.4 18.43-0.95 15.9 0.5 12.65 0.5ZM64.2-17.5L64.2-17.5Q64.2-13.65 62.95-10.38 61.7-7.1 59.45-4.65 57.2-2.2 54.1-0.85 51 0.5 47.35 0.5L47.35 0.5Q43.65 0.5 40.57-0.85 37.5-2.2 35.25-4.65 33-7.1 31.75-10.38 30.5-13.65 30.5-17.5L30.5-17.5Q30.5-21.4 31.75-24.68 33-27.95 35.25-30.38 37.5-32.8 40.57-34.15 43.65-35.5 47.35-35.5L47.35-35.5Q51-35.5 54.1-34.15 57.2-32.8 59.45-30.38 61.7-27.95 62.95-24.68 64.2-21.4 64.2-17.5ZM59.9-17.5L59.9-17.5Q59.9-21.6 58.27-24.75 56.65-27.9 53.85-29.7 51.05-31.5 47.35-31.5L47.35-31.5Q43.65-31.5 40.82-29.7 38-27.9 36.4-24.75 34.8-21.6 34.8-17.5L34.8-17.5Q34.8-13.45 36.4-10.28 38-7.1 40.82-5.3 43.65-3.5 47.35-3.5L47.35-3.5Q51.05-3.5 53.85-5.3 56.65-7.1 58.27-10.28 59.9-13.45 59.9-17.5ZM95.65-35.05L95.65-35.05Q96.5-35.05 97.05-34.45 97.6-33.85 97.6-33L97.6-33 97.6-13.15Q97.6-9.3 95.82-6.25 94.05-3.2 91.05-1.43 88.05 0.35 84.25 0.35L84.25 0.35Q80.4 0.35 77.37-1.43 74.35-3.2 72.6-6.25 70.85-9.3 70.85-13.15L70.85-13.15 70.85-33Q70.85-33.85 71.42-34.45 72-35.05 72.95-35.05L72.95-35.05Q73.75-35.05 74.37-34.45 75-33.85 75-33L75-33 75-13.15Q75-10.4 76.25-8.25 77.5-6.1 79.62-4.88 81.75-3.65 84.25-3.65L84.25-3.65Q86.8-3.65 88.95-4.88 91.1-6.1 92.42-8.25 93.75-10.4 93.75-13.15L93.75-13.15 93.75-33Q93.75-33.85 94.25-34.45 94.75-35.05 95.65-35.05ZM108.64 0L108.64 0Q107.69 0 107.02-0.6 106.34-1.2 106.34-2.05L106.34-2.05 106.34-33Q106.34-33.85 106.92-34.43 107.49-35 108.34-35L108.34-35 122.14-35Q124.94-35 127.19-33.73 129.44-32.45 130.77-30.23 132.09-28 132.09-25.1L132.09-25.1Q132.09-23 131.29-21.18 130.49-19.35 129.09-18.03 127.69-16.7 125.89-16L125.89-16 124.79-16.8Q126.49-16.4 127.84-15.38 129.19-14.35 130.04-12.78 130.89-11.2 130.94-9.1L130.94-9.1Q131.04-7.25 131.19-6.15 131.34-5.05 131.64-4.42 131.94-3.8 132.49-3.45L132.49-3.45Q133.19-3 133.42-2.25 133.64-1.5 133.14-0.8L133.14-0.8Q132.84-0.35 132.29-0.18 131.74 0 131.19-0.05 130.64-0.1 130.24-0.35L130.24-0.35Q129.44-0.8 128.69-1.68 127.94-2.55 127.44-4.2 126.94-5.85 126.94-8.7L126.94-8.7Q126.94-10.3 126.44-11.35 125.94-12.4 125.09-13.05 124.24-13.7 123.19-13.95 122.14-14.2 121.04-14.2L121.04-14.2 109.89-14.2 110.49-15.1 110.49-2.05Q110.49-1.2 109.99-0.6 109.49 0 108.64 0ZM110.49-16.9L109.89-17.8 122.14-17.8Q123.59-17.9 124.87-18.8 126.14-19.7 126.97-21.33 127.79-22.95 127.79-25L127.79-25Q127.79-27.65 126.12-29.4 124.44-31.15 121.89-31.15L121.89-31.15 110.09-31.15 110.49-32.1 110.49-16.9ZM166.04-35L166.04-35Q166.89-35 167.39-34.48 167.89-33.95 167.89-33.15L167.89-33.15 167.89-2.1Q167.89-1.15 167.29-0.58 166.69 0 165.84 0L165.84 0Q165.39 0 164.94-0.18 164.49-0.35 164.24-0.65L164.24-0.65 142.84-28.95 143.84-29.55 143.84-1.85Q143.84-1.05 143.31-0.53 142.79 0 141.94 0L141.94 0Q141.14 0 140.64-0.53 140.14-1.05 140.14-1.85L140.14-1.85 140.14-33Q140.14-33.9 140.72-34.45 141.29-35 142.09-35L142.09-35Q142.54-35 143.02-34.83 143.49-34.65 143.74-34.3L143.74-34.3 164.84-6.4 164.19-5.6 164.19-33.15Q164.19-33.95 164.72-34.48 165.24-35 166.04-35ZM178.64-35L178.64-35 196.44-35Q197.29-35 197.89-34.45 198.49-33.9 198.49-33.05L198.49-33.05Q198.49-32.2 197.89-31.68 197.29-31.15 196.44-31.15L196.44-31.15 180.34-31.15 180.79-32 180.79-19.35 180.29-19.9 194.19-19.9Q195.04-19.9 195.64-19.35 196.24-18.8 196.24-17.95L196.24-17.95Q196.24-17.1 195.64-16.57 195.04-16.05 194.19-16.05L194.19-16.05 180.44-16.05 180.79-16.5 180.79-3.55 180.49-3.9 196.44-3.9Q197.29-3.9 197.89-3.3 198.49-2.7 198.49-1.95L198.49-1.95Q198.49-1.1 197.89-0.55 197.29 0 196.44 0L196.44 0 178.64 0Q177.79 0 177.21-0.6 176.64-1.2 176.64-2.05L176.64-2.05 176.64-33Q176.64-33.85 177.21-34.43 177.79-35 178.64-35ZM226.44-35.2L226.44-35.2Q227.29-35.2 227.86-34.58 228.44-33.95 228.44-33.15L228.44-33.15Q228.44-32.85 228.36-32.52 228.29-32.2 228.09-31.9L228.09-31.9 216.49-15.75 217.14-18.2 217.14-2.05Q217.14-1.2 216.56-0.6 215.99 0 215.19 0L215.19 0Q214.29 0 213.71-0.6 213.14-1.2 213.14-2.05L213.14-2.05 213.14-17.8 213.49-16.5 202.24-31.7Q201.94-32.1 201.81-32.48 201.69-32.85 201.69-33.2L201.69-33.2Q201.69-34.05 202.39-34.63 203.09-35.2 203.79-35.2L203.79-35.2Q204.79-35.2 205.44-34.25L205.44-34.25 215.79-20.05 214.84-20.2 224.79-34.2Q225.44-35.2 226.44-35.2Z" fill="#7bb1ff" data-fill-palette-color="primary"></path><path d="M243.04 0.5L243.04 0.5Q239.34 0.5 236.54-0.6 233.74-1.7 231.14-4.1L231.14-4.1Q230.79-4.45 230.57-4.88 230.34-5.3 230.34-5.8L230.34-5.8Q230.34-6.6 230.92-7.23 231.49-7.85 232.34-7.85L232.34-7.85Q233.04-7.85 233.59-7.3L233.59-7.3Q235.54-5.4 237.82-4.4 240.09-3.4 242.94-3.4L242.94-3.4Q245.14-3.4 246.92-4.1 248.69-4.8 249.74-6.05 250.79-7.3 250.79-8.95L250.79-8.95Q250.74-10.95 249.62-12.25 248.49-13.55 246.51-14.43 244.54-15.3 241.94-15.9L241.94-15.9Q239.64-16.45 237.72-17.25 235.79-18.05 234.39-19.23 232.99-20.4 232.22-22.08 231.44-23.75 231.44-26L231.44-26Q231.44-28.85 232.94-31 234.44-33.15 237.09-34.33 239.74-35.5 243.19-35.5L243.19-35.5Q246.24-35.5 248.97-34.5 251.69-33.5 253.34-31.75L253.34-31.75Q254.34-30.8 254.34-29.9L254.34-29.9Q254.34-29.15 253.72-28.53 253.09-27.9 252.29-27.9L252.29-27.9Q251.74-27.9 251.29-28.3L251.29-28.3Q250.44-29.25 249.14-30 247.84-30.75 246.29-31.2 244.74-31.65 243.19-31.65L243.19-31.65Q240.89-31.65 239.14-30.98 237.39-30.3 236.42-29.08 235.44-27.85 235.44-26.15L235.44-26.15Q235.44-24.25 236.54-23.03 237.64-21.8 239.49-21.03 241.34-20.25 243.59-19.65L243.59-19.65Q246.04-19.05 248.12-18.28 250.19-17.5 251.69-16.35 253.19-15.2 254.02-13.43 254.84-11.65 254.84-9.05L254.84-9.05Q254.84-6.3 253.29-4.15 251.74-2 249.07-0.78 246.39 0.45 243.04 0.5ZM272.54-29.85L273.64-29.8 261.89-1.2Q261.69-0.6 261.19-0.25 260.69 0.1 260.14 0.1L260.14 0.1Q259.19 0.1 258.74-0.4 258.29-0.9 258.29-1.6L258.29-1.6Q258.24-1.95 258.39-2.35L258.39-2.35 271.34-33.85Q271.59-34.55 272.11-34.88 272.64-35.2 273.29-35.15L273.29-35.15Q273.94-35.15 274.46-34.8 274.99-34.45 275.19-33.85L275.19-33.85 288.09-2.65Q288.24-2.25 288.24-1.85L288.24-1.85Q288.24-0.95 287.64-0.43 287.04 0.1 286.29 0.1L286.29 0.1Q285.69 0.1 285.19-0.25 284.69-0.6 284.44-1.25L284.44-1.25 272.54-29.85ZM281.69-9.35L264.39-9.35 266.09-13.25 280.94-13.25 281.69-9.35ZM295.79 0L295.79 0Q294.89 0 294.31-0.6 293.74-1.2 293.74-2.05L293.74-2.05 293.74-33Q293.74-33.85 294.31-34.43 294.89-35 295.74-35L295.74-35 313.29-35Q314.14-35 314.74-34.45 315.34-33.9 315.34-33.05L315.34-33.05Q315.34-32.25 314.74-31.7 314.14-31.15 313.29-31.15L313.29-31.15 297.54-31.15 297.84-31.55 297.84-19.3 297.59-19.85 311.04-19.85Q311.89-19.85 312.49-19.28 313.09-18.7 313.09-17.85L313.09-17.85Q313.09-17.1 312.49-16.53 311.89-15.95 311.04-15.95L311.04-15.95 297.49-15.95 297.84-16.4 297.84-2.05Q297.84-1.2 297.24-0.6 296.64 0 295.79 0ZM323.98-35L323.98-35 341.78-35Q342.63-35 343.23-34.45 343.83-33.9 343.83-33.05L343.83-33.05Q343.83-32.2 343.23-31.68 342.63-31.15 341.78-31.15L341.78-31.15 325.68-31.15 326.13-32 326.13-19.35 325.63-19.9 339.53-19.9Q340.38-19.9 340.98-19.35 341.58-18.8 341.58-17.95L341.58-17.95Q341.58-17.1 340.98-16.57 340.38-16.05 339.53-16.05L339.53-16.05 325.78-16.05 326.13-16.5 326.13-3.55 325.83-3.9 341.78-3.9Q342.63-3.9 343.23-3.3 343.83-2.7 343.83-1.95L343.83-1.95Q343.83-1.1 343.23-0.55 342.63 0 341.78 0L341.78 0 323.98 0Q323.13 0 322.56-0.6 321.98-1.2 321.98-2.05L321.98-2.05 321.98-33Q321.98-33.85 322.56-34.43 323.13-35 323.98-35ZM361.33 0L361.33 0Q360.43 0 359.83-0.6 359.23-1.2 359.23-2.05L359.23-2.05 359.23-32.95 363.48-32.95 363.48-2.05Q363.48-1.2 362.88-0.6 362.28 0 361.33 0ZM372.98-31.2L349.73-31.2Q348.88-31.2 348.31-31.73 347.73-32.25 347.73-33.1L347.73-33.1Q347.73-33.95 348.31-34.48 348.88-35 349.73-35L349.73-35 372.98-35Q373.83-35 374.43-34.48 375.03-33.95 375.03-33.1L375.03-33.1Q375.03-32.2 374.43-31.7 373.83-31.2 372.98-31.2L372.98-31.2ZM402.33-35.2L402.33-35.2Q403.18-35.2 403.75-34.58 404.33-33.95 404.33-33.15L404.33-33.15Q404.33-32.85 404.25-32.52 404.18-32.2 403.98-31.9L403.98-31.9 392.38-15.75 393.03-18.2 393.03-2.05Q393.03-1.2 392.45-0.6 391.88 0 391.08 0L391.08 0Q390.18 0 389.6-0.6 389.03-1.2 389.03-2.05L389.03-2.05 389.03-17.8 389.38-16.5 378.13-31.7Q377.83-32.1 377.7-32.48 377.58-32.85 377.58-33.2L377.58-33.2Q377.58-34.05 378.28-34.63 378.98-35.2 379.68-35.2L379.68-35.2Q380.68-35.2 381.33-34.25L381.33-34.25 391.68-20.05 390.73-20.2 400.68-34.2Q401.33-35.2 402.33-35.2Z" fill="#ff82fc" data-fill-palette-color="secondary"></path><path d="M448.83-35.15L448.83-35.15Q449.63-35.15 450.31-34.6 450.98-34.05 450.98-33.05L450.98-33.05Q450.98-32.7 450.88-32.3L450.88-32.3 440.23-1.3Q440.03-0.7 439.51-0.38 438.98-0.05 438.43 0L438.43 0Q437.83 0 437.28-0.33 436.73-0.65 436.43-1.3L436.43-1.3 428.08-21.5 428.48-21.35 420.18-1.3Q419.88-0.65 419.33-0.33 418.78 0 418.18 0L418.18 0Q417.63-0.05 417.11-0.38 416.58-0.7 416.38-1.3L416.38-1.3 405.73-32.3Q405.63-32.7 405.63-33L405.63-33Q405.63-34 406.35-34.58 407.08-35.15 407.83-35.15L407.83-35.15Q408.43-35.15 408.98-34.8 409.53-34.45 409.73-33.85L409.73-33.85 419.08-6.25 418.38-6.25 426.53-26.4Q426.78-27 427.28-27.35 427.78-27.7 428.43-27.7L428.43-27.7Q429.03-27.7 429.56-27.35 430.08-27 430.28-26.4L430.28-26.4 438.18-6.55 437.58-6.3 446.88-33.85Q447.08-34.45 447.63-34.8 448.18-35.15 448.83-35.15ZM460.83-32.95L460.83-2.05Q460.83-1.2 460.2-0.6 459.58 0 458.73 0L458.73 0Q457.78 0 457.23-0.6 456.68-1.2 456.68-2.05L456.68-2.05 456.68-32.95Q456.68-33.85 457.28-34.43 457.88-35 458.78-35L458.78-35Q459.63-35 460.23-34.43 460.83-33.85 460.83-32.95L460.83-32.95ZM480.48 0L480.48 0Q479.58 0 478.98-0.6 478.38-1.2 478.38-2.05L478.38-2.05 478.38-32.95 482.63-32.95 482.63-2.05Q482.63-1.2 482.03-0.6 481.43 0 480.48 0ZM492.13-31.2L468.88-31.2Q468.03-31.2 467.45-31.73 466.88-32.25 466.88-33.1L466.88-33.1Q466.88-33.95 467.45-34.48 468.03-35 468.88-35L468.88-35 492.13-35Q492.98-35 493.58-34.48 494.18-33.95 494.18-33.1L494.18-33.1Q494.18-32.2 493.58-31.7 492.98-31.2 492.13-31.2L492.13-31.2ZM502.27-35L502.27-35Q503.12-35 503.72-34.43 504.32-33.85 504.32-32.95L504.32-32.95 504.32-2.05Q504.32-1.2 503.7-0.6 503.07 0 502.22 0L502.22 0Q501.27 0 500.72-0.6 500.17-1.2 500.17-2.05L500.17-2.05 500.17-32.95Q500.17-33.85 500.77-34.43 501.37-35 502.27-35ZM525.32-35L525.32-35Q526.22-35 526.8-34.43 527.37-33.85 527.37-32.95L527.37-32.95 527.37-2.05Q527.37-1.2 526.77-0.6 526.17 0 525.27 0L525.27 0Q524.42 0 523.82-0.6 523.22-1.2 523.22-2.05L523.22-2.05 523.22-32.95Q523.22-33.85 523.85-34.43 524.47-35 525.32-35ZM501.92-15.85L502.07-19.75 525.37-19.75 525.32-15.85 501.92-15.85Z" fill="#57dbe4" data-fill-palette-color="accent"></path><path d="M556.57-35.05L556.57-35.05Q557.42-35.05 557.97-34.45 558.52-33.85 558.52-33L558.52-33 558.52-13.15Q558.52-9.3 556.75-6.25 554.97-3.2 551.97-1.43 548.97 0.35 545.17 0.35L545.17 0.35Q541.32 0.35 538.3-1.43 535.27-3.2 533.52-6.25 531.77-9.3 531.77-13.15L531.77-13.15 531.77-33Q531.77-33.85 532.35-34.45 532.92-35.05 533.87-35.05L533.87-35.05Q534.67-35.05 535.3-34.45 535.92-33.85 535.92-33L535.92-33 535.92-13.15Q535.92-10.4 537.17-8.25 538.42-6.1 540.55-4.88 542.67-3.65 545.17-3.65L545.17-3.65Q547.72-3.65 549.87-4.88 552.02-6.1 553.35-8.25 554.67-10.4 554.67-13.15L554.67-13.15 554.67-33Q554.67-33.85 555.17-34.45 555.67-35.05 556.57-35.05ZM577.47 0.5L577.47 0.5Q573.77 0.5 570.97-0.6 568.17-1.7 565.57-4.1L565.57-4.1Q565.22-4.45 564.99-4.88 564.77-5.3 564.77-5.8L564.77-5.8Q564.77-6.6 565.34-7.23 565.92-7.85 566.77-7.85L566.77-7.85Q567.47-7.85 568.02-7.3L568.02-7.3Q569.97-5.4 572.24-4.4 574.52-3.4 577.37-3.4L577.37-3.4Q579.57-3.4 581.34-4.1 583.12-4.8 584.17-6.05 585.22-7.3 585.22-8.95L585.22-8.95Q585.17-10.95 584.04-12.25 582.92-13.55 580.94-14.43 578.97-15.3 576.37-15.9L576.37-15.9Q574.07-16.45 572.14-17.25 570.22-18.05 568.82-19.23 567.42-20.4 566.64-22.08 565.87-23.75 565.87-26L565.87-26Q565.87-28.85 567.37-31 568.87-33.15 571.52-34.33 574.17-35.5 577.62-35.5L577.62-35.5Q580.67-35.5 583.39-34.5 586.12-33.5 587.77-31.75L587.77-31.75Q588.77-30.8 588.77-29.9L588.77-29.9Q588.77-29.15 588.14-28.53 587.52-27.9 586.72-27.9L586.72-27.9Q586.17-27.9 585.72-28.3L585.72-28.3Q584.87-29.25 583.57-30 582.27-30.75 580.72-31.2 579.17-31.65 577.62-31.65L577.62-31.65Q575.32-31.65 573.57-30.98 571.82-30.3 570.84-29.08 569.87-27.85 569.87-26.15L569.87-26.15Q569.87-24.25 570.97-23.03 572.07-21.8 573.92-21.03 575.77-20.25 578.02-19.65L578.02-19.65Q580.47-19.05 582.54-18.28 584.62-17.5 586.12-16.35 587.62-15.2 588.44-13.43 589.27-11.65 589.27-9.05L589.27-9.05Q589.27-6.3 587.72-4.15 586.17-2 583.49-0.78 580.82 0.45 577.47 0.5Z" fill="#7bb1ff" data-fill-palette-color="primary"></path></g></svg></g></svg></g></svg></g></svg></g><g transform="matrix(1,0,0,1,0,10.586072589848929)"><svg viewBox="0 0 62.271015234405475 62.271015234405475" height="62.271015234405475" width="62.271015234405475"><g><svg xmlns="http://www.w3.org/2000/svg" xmlns:xlink="http://www.w3.org/1999/xlink" version="1.1" x="0" y="0" viewBox="5 5 90 90" enable-background="new 0 0 100 100" xml:space="preserve" height="62.271015234405475" width="62.271015234405475" class="icon-icon-0" data-fill-palette-color="accent" id="icon-0"><path fill="#57dbe4" d="M95 52c0-12.871-5.692-24.431-14.682-32.318C72.431 10.692 60.871 5 48 5 24.29 5 5 24.29 5 48c0 12.868 5.69 24.426 14.677 32.313C27.564 89.306 39.126 95 52 95c0.084 0 0.166-0.006 0.25-0.006S52.416 95 52.5 95C75.972 95 95 75.972 95 52.5c0-0.084-0.006-0.166-0.006-0.25S95 52.084 95 52zM21.828 73.371c-4.245-5.978-6.77-13.259-6.822-21.121 0.135-20.511 16.732-37.109 37.244-37.244 7.862 0.052 15.144 2.577 21.121 6.822C80.224 28.473 84.5 37.758 84.5 48c0 20.126-16.374 36.5-36.5 36.5C37.758 84.5 28.473 80.224 21.828 73.371zM6 48C6 24.841 24.841 6 48 6c9.858 0 18.926 3.422 26.1 9.13C67.637 11.242 60.076 9 52 9 28.29 9 9 28.29 9 52c0 8.074 2.241 15.633 6.127 22.095C9.421 66.923 6 57.856 6 48zM52 89c-10.08 0-19.227-4.055-25.905-10.615C32.269 82.854 39.838 85.5 48 85.5c20.678 0 37.5-16.822 37.5-37.5 0-8.162-2.646-15.731-7.115-21.905C84.945 32.773 89 41.92 89 52 89 72.402 72.402 89 52 89z" data-fill-palette-color="accent"></path></svg></g></svg></g></svg></g><defs></defs></svg><rect width="395.52" height="67.77179528613655" fill="none" stroke="none" visibility="hidden"></rect></g></svg></g></svg>